<svg id="svg" version="1.1" xmlns="http://www.w3.org/2000/svg" xmlns:xlink="http://www.w3.org/1999/xlink" width="400" height="217.60000000000002" viewBox="0, 0, 400,217.60000000000002"><g id="svgg"><path id="path0" d="M232.497 36.760 C 229.545 37.781,227.257 40.226,226.198 43.494 C 226.026 44.023,225.332 44.923,224.117 46.194 C 221.058 49.394,219.768 51.668,217.720 57.473 C 216.480 60.987,216.471 61.041,216.909 62.090 C 217.292 63.008,217.234 63.202,215.779 65.835 C 214.405 68.322,214.285 69.000,215.217 69.000 C 215.556 69.000,215.803 69.069,215.767 69.154 C 215.702 69.305,212.748 73.589,211.850 74.835 C 211.217 75.712,211.419 78.092,212.138 78.239 C 212.313 78.275,210.533 80.108,207.772 82.733 C 203.977 86.343,203.047 87.132,202.768 86.983 C 202.579 86.882,198.942 84.366,194.684 81.392 C 185.849 75.219,186.275 75.489,185.887 75.811 C 185.184 76.394,185.620 76.757,194.406 82.891 L 203.212 89.038 207.125 85.269 C 212.455 80.135,213.585 79.127,214.049 79.093 C 214.268 79.077,214.819 78.673,215.274 78.195 C 216.299 77.118,216.325 77.211,215.918 80.445 C 215.418 84.419,215.039 88.426,214.400 96.500 C 213.890 102.946,213.392 108.384,212.899 112.900 C 212.735 114.397,213.103 113.408,213.424 111.489 L 213.689 109.900 213.837 111.475 C 214.115 114.421,215.299 115.807,219.400 117.988 C 223.812 120.334,225.033 122.189,223.069 123.560 C 221.393 124.730,219.651 123.711,219.298 121.354 C 219.103 120.054,218.955 119.983,216.322 119.939 C 212.925 119.882,212.494 120.639,213.578 124.766 C 214.620 128.734,220.019 130.593,226.625 129.258 C 228.555 128.868,231.009 126.412,231.581 124.300 C 232.558 120.691,231.007 118.503,224.232 113.931 C 221.134 111.841,220.689 111.163,221.750 110.150 C 223.697 108.293,225.807 109.129,225.955 111.817 C 226.085 114.153,226.384 114.328,229.805 114.064 C 232.031 113.892,232.079 113.829,231.950 111.290 C 231.794 108.245,230.953 106.844,228.372 105.332 C 225.751 103.796,219.226 103.948,216.850 105.601 C 215.910 106.254,215.861 106.172,216.309 104.700 C 216.477 104.150,216.840 102.710,217.117 101.500 C 217.933 97.936,217.979 97.800,218.377 97.800 C 219.095 97.800,219.400 97.158,219.400 95.646 L 219.400 94.223 220.250 94.161 L 221.100 94.100 221.045 93.238 C 221.015 92.764,221.214 90.424,221.487 88.038 C 221.761 85.652,222.263 81.000,222.602 77.700 C 223.265 71.259,223.398 70.564,224.060 70.101 C 225.040 69.414,225.900 70.037,226.592 71.935 C 227.249 73.736,229.600 75.115,229.600 73.700 C 229.600 73.067,229.888 72.920,230.444 73.269 C 230.992 73.613,233.140 73.841,233.700 73.615 C 234.350 73.353,231.624 72.350,229.573 72.097 C 226.803 71.755,227.208 68.609,230.366 65.929 C 235.326 61.721,237.199 56.478,235.810 50.686 C 235.017 47.376,235.095 45.474,236.118 43.200 C 236.826 41.628,238.169 39.705,238.832 39.313 C 239.929 38.665,239.438 37.182,237.937 36.613 C 237.030 36.270,233.652 36.361,232.497 36.760 M235.886 38.714 C 236.545 39.374,236.067 40.600,235.151 40.600 C 234.602 40.600,234.000 40.043,234.000 39.535 C 234.000 38.586,235.225 38.053,235.886 38.714 M238.503 40.478 C 237.926 41.056,237.833 42.012,238.315 42.412 C 238.784 42.802,239.372 44.055,239.520 44.982 C 239.688 46.030,239.859 46.012,240.525 44.876 C 242.009 42.344,240.317 38.665,238.503 40.478 M236.711 42.845 C 235.984 43.882,236.594 44.800,238.011 44.800 C 238.708 44.800,239.000 44.720,239.000 44.530 C 239.000 43.039,237.400 41.861,236.711 42.845 M174.100 80.641 C 170.800 83.842,165.966 88.525,163.357 91.048 L 158.614 95.634 146.698 86.008 L 134.782 76.382 131.733 78.741 C 130.056 80.039,124.665 84.205,119.753 88.000 C 114.840 91.795,110.817 94.981,110.811 95.080 C 110.790 95.437,112.105 96.988,112.354 96.899 C 112.598 96.813,118.530 92.250,129.027 84.076 C 134.386 79.903,134.549 79.791,135.017 79.975 C 135.192 80.044,136.677 81.194,138.317 82.532 C 145.918 88.728,158.697 98.999,158.793 98.989 C 158.852 98.983,163.710 94.320,169.589 88.626 L 180.278 78.275 191.926 89.038 C 198.332 94.957,203.648 99.800,203.738 99.800 C 203.984 99.800,214.200 89.532,214.200 89.285 C 214.200 89.027,212.832 87.400,212.615 87.400 C 212.530 87.400,210.546 89.425,208.204 91.900 C 205.863 94.375,203.892 96.400,203.824 96.399 C 203.756 96.399,198.435 91.539,192.000 85.600 C 185.565 79.661,180.255 74.806,180.200 74.811 C 180.145 74.816,177.400 77.440,174.100 80.641 M154.266 75.187 C 153.037 75.249,151.980 75.352,151.917 75.415 C 151.784 75.549,155.580 79.700,155.835 79.700 C 156.120 79.700,160.774 75.518,160.788 75.250 C 160.801 74.983,158.709 74.962,154.266 75.187 M239.833 75.990 C 239.941 76.296,243.813 80.400,243.995 80.400 C 244.181 80.400,248.863 76.225,248.967 75.966 C 249.003 75.875,246.948 75.800,244.400 75.800 C 241.568 75.800,239.793 75.874,239.833 75.990 M199.903 78.499 L 202.048 80.798 203.174 79.815 C 203.793 79.275,204.930 78.244,205.700 77.526 L 207.100 76.219 202.430 76.210 L 197.759 76.200 199.903 78.499 M225.057 77.050 L 224.231 77.900 234.126 88.100 C 239.569 93.710,244.138 98.300,244.281 98.300 C 244.423 98.300,249.150 94.115,254.786 89.000 C 260.421 83.885,265.093 79.677,265.169 79.649 C 265.244 79.621,270.165 83.287,276.103 87.795 C 282.041 92.304,286.990 95.991,287.100 95.990 C 287.509 95.984,288.608 94.121,288.345 93.879 C 288.160 93.709,269.472 79.515,265.682 76.666 L 265.064 76.202 254.816 85.501 C 249.180 90.615,244.494 94.800,244.403 94.800 C 244.312 94.800,240.169 90.615,235.196 85.500 C 230.223 80.385,226.093 76.200,226.019 76.200 C 225.944 76.200,225.512 76.583,225.057 77.050 M168.174 79.541 C 166.373 81.262,163.528 84.014,161.851 85.657 C 158.998 88.453,158.761 88.638,158.151 88.556 C 157.705 88.496,155.017 86.725,149.616 82.934 C 145.281 79.890,141.624 77.400,141.491 77.400 C 141.135 77.400,140.739 77.952,140.863 78.275 C 141.017 78.677,158.184 90.634,158.503 90.561 C 158.650 90.528,160.599 88.752,162.835 86.615 C 172.547 77.333,172.749 77.108,171.824 76.613 C 171.502 76.441,170.975 76.864,168.174 79.541 M231.085 77.728 C 231.248 78.399,231.088 78.240,238.359 84.995 L 244.018 90.253 244.459 89.855 C 244.702 89.636,247.870 86.955,251.500 83.898 C 255.130 80.840,258.216 78.234,258.357 78.105 C 259.033 77.491,258.045 76.948,257.137 77.434 C 256.762 77.635,246.025 86.616,244.596 87.925 L 244.091 88.387 241.596 86.069 C 232.779 77.880,232.291 77.452,231.622 77.305 C 230.957 77.159,230.948 77.166,231.085 77.728 M172.800 90.507 C 162.741 99.316,162.217 99.857,163.315 100.278 C 163.571 100.376,176.308 89.503,180.307 85.771 L 180.914 85.205 188.580 92.103 C 196.765 99.467,197.166 99.761,196.859 98.154 C 196.775 97.716,181.300 83.366,180.954 83.406 C 180.924 83.410,177.255 86.605,172.800 90.507 M259.084 90.742 C 255.594 94.019,252.438 96.954,252.069 97.265 C 251.436 97.799,251.027 99.627,251.550 99.589 C 251.632 99.583,254.799 96.671,258.587 93.118 L 265.475 86.658 271.960 92.429 C 275.527 95.603,278.503 98.199,278.573 98.197 C 280.361 98.154,278.320 96.054,266.164 85.427 L 265.429 84.784 259.084 90.742 M126.500 91.428 C 117.670 98.115,117.753 98.042,118.354 98.642 C 118.751 99.040,118.763 99.032,125.926 93.596 C 133.617 87.760,134.056 87.470,134.907 87.684 C 135.248 87.769,137.346 89.655,140.446 92.661 C 148.331 100.307,148.941 100.846,149.419 100.590 C 149.642 100.471,149.796 100.220,149.762 100.034 C 149.714 99.772,139.366 89.568,135.387 85.859 L 134.699 85.218 126.500 91.428 M225.330 85.937 C 224.957 86.309,225.690 87.197,231.072 92.900 C 237.161 99.350,238.575 100.519,238.128 98.739 C 238.028 98.342,232.012 91.732,227.600 87.171 C 226.589 86.126,225.651 85.616,225.330 85.937 M264.088 96.094 C 262.775 97.278,261.670 98.326,261.633 98.423 C 261.596 98.522,263.548 98.600,266.083 98.600 C 268.568 98.600,270.596 98.533,270.592 98.450 C 270.588 98.368,269.660 97.319,268.530 96.121 L 266.476 93.942 264.088 96.094 M221.500 96.490 L 219.100 98.787 223.383 98.744 C 226.027 98.717,227.690 98.623,227.728 98.500 C 227.761 98.390,226.914 97.376,225.844 96.247 L 223.900 94.193 221.500 96.490 M179.000 96.711 C 177.735 97.863,176.670 98.895,176.633 99.003 C 176.591 99.129,178.205 99.200,181.083 99.200 C 183.567 99.200,185.600 99.144,185.600 99.076 C 185.600 98.900,181.583 94.598,181.428 94.608 C 181.357 94.612,180.265 95.559,179.000 96.711 M133.808 98.480 C 132.547 99.620,131.482 100.654,131.441 100.777 C 131.388 100.937,132.653 101.000,135.900 101.000 C 138.669 101.000,140.407 100.926,140.367 100.810 C 140.269 100.533,136.395 96.400,136.235 96.403 C 136.161 96.404,135.068 97.339,133.808 98.480 M210.746 98.092 C 209.287 99.338,208.835 99.971,209.099 100.398 C 209.391 100.870,210.112 100.508,211.754 99.064 C 212.714 98.219,213.525 97.512,213.555 97.492 C 213.585 97.473,213.553 97.309,213.483 97.129 C 213.217 96.436,212.316 96.753,210.746 98.092 M215.245 104.950 C 215.159 106.621,215.063 107.043,214.574 107.900 C 213.876 109.124,213.870 108.956,214.499 105.692 C 214.773 104.266,214.998 103.078,214.999 103.050 C 215.000 103.022,215.077 103.000,215.172 103.000 C 215.267 103.000,215.299 103.878,215.245 104.950 M101.600 104.139 C 99.114 104.293,95.129 104.791,94.951 104.969 C 94.666 105.254,94.426 110.444,94.431 116.200 C 94.434 119.005,94.421 123.000,94.402 125.077 C 94.359 129.858,94.088 129.517,97.855 129.432 C 101.573 129.347,101.289 129.722,101.264 124.927 C 101.236 119.574,101.612 119.232,103.151 123.211 C 103.638 124.470,104.240 125.950,104.490 126.500 C 104.740 127.050,105.108 127.888,105.308 128.362 C 105.808 129.548,105.901 129.573,109.368 129.450 C 113.096 129.317,112.944 129.554,111.538 126.051 C 110.931 124.538,110.371 122.985,110.293 122.600 C 110.215 122.215,109.982 121.566,109.776 121.158 C 109.267 120.153,109.257 120.175,110.491 119.530 C 113.474 117.972,114.909 113.718,113.791 109.751 C 112.731 105.993,110.794 104.622,106.100 104.308 C 105.110 104.241,103.940 104.161,103.500 104.129 C 103.060 104.096,102.205 104.101,101.600 104.139 M183.400 104.213 C 176.351 104.559,172.254 108.990,171.468 117.119 C 170.986 122.102,174.352 127.546,178.862 129.077 C 180.871 129.759,186.575 129.644,188.000 128.892 C 190.198 127.733,190.765 126.571,190.788 123.174 C 190.801 121.334,190.563 120.807,189.853 121.102 C 183.650 123.676,180.122 122.557,179.438 117.800 C 178.764 113.108,181.382 110.398,186.586 110.401 C 188.442 110.402,188.778 110.483,189.962 111.215 C 190.724 111.685,190.964 111.116,190.964 108.837 C 190.964 104.749,189.589 103.909,183.400 104.213 M326.200 104.338 C 316.549 104.903,312.514 108.870,312.504 117.805 L 312.500 121.110 313.561 123.221 C 314.737 125.560,315.634 126.561,317.801 127.949 C 322.085 130.695,330.403 129.560,331.767 126.045 C 332.255 124.788,332.725 121.184,332.620 119.500 C 332.607 119.280,332.543 118.184,332.479 117.064 C 332.315 114.176,331.910 113.968,327.104 114.295 C 324.224 114.491,324.209 114.508,324.345 117.229 C 324.477 119.886,324.578 120.085,325.711 119.929 C 326.819 119.778,326.882 119.904,326.311 121.137 C 325.247 123.433,322.656 123.430,321.073 121.132 C 319.488 118.833,319.705 114.401,321.485 112.700 C 323.529 110.747,327.227 109.979,329.757 110.981 C 331.680 111.743,331.803 111.632,331.795 109.134 C 331.789 107.048,331.541 105.981,330.975 105.600 C 330.263 105.122,327.992 104.196,327.630 104.237 C 327.449 104.257,326.805 104.303,326.200 104.338 M25.883 104.583 C 25.666 104.801,25.845 105.423,26.272 105.935 C 26.531 106.246,26.904 106.815,27.100 107.200 C 27.296 107.585,27.898 108.530,28.438 109.300 C 30.702 112.525,33.400 116.722,33.400 117.020 C 33.400 117.197,33.179 117.647,32.908 118.020 C 32.637 118.394,32.220 119.060,31.979 119.500 C 31.442 120.484,28.157 125.235,26.799 126.992 C 25.030 129.280,25.317 129.523,29.700 129.446 C 33.213 129.384,33.279 129.369,33.857 128.510 C 35.523 126.034,36.679 124.407,37.182 123.828 L 37.767 123.155 38.285 123.928 C 40.117 126.658,41.969 129.122,42.320 129.297 C 43.614 129.943,50.000 129.463,50.000 128.720 C 50.000 128.340,46.854 123.865,45.984 123.008 C 45.700 122.729,45.227 122.095,44.932 121.600 C 44.637 121.105,44.225 120.475,44.015 120.200 C 41.430 116.803,41.508 117.268,43.150 115.057 C 43.893 114.057,44.916 112.577,45.424 111.769 C 46.538 109.999,48.423 107.156,49.105 106.220 C 50.181 104.743,50.050 104.669,46.150 104.552 C 42.297 104.437,42.208 104.458,41.425 105.693 C 41.124 106.168,40.629 106.859,40.325 107.229 C 40.021 107.598,39.326 108.597,38.779 109.450 C 38.233 110.303,37.721 110.996,37.643 110.992 C 37.451 110.980,36.273 109.339,34.685 106.867 C 33.966 105.749,33.226 104.768,33.039 104.686 C 32.687 104.532,26.030 104.436,25.883 104.583 M56.724 104.594 C 52.066 104.769,52.447 103.730,52.399 116.390 C 52.385 120.180,52.330 123.352,52.276 123.439 C 52.130 123.674,52.432 128.928,52.607 129.211 C 52.870 129.636,58.790 129.591,59.020 129.163 C 59.119 128.978,59.205 127.358,59.212 125.563 C 59.218 123.768,59.287 121.940,59.364 121.500 L 59.505 120.700 60.803 120.655 C 68.144 120.399,69.613 119.759,71.456 116.016 C 72.868 113.149,71.925 107.784,69.714 106.097 C 68.330 105.042,64.555 104.323,61.000 104.438 C 60.505 104.454,58.581 104.524,56.724 104.594 M78.022 104.619 C 74.869 104.830,74.886 104.820,74.729 106.553 C 74.406 110.116,74.637 128.862,75.009 129.311 C 75.153 129.485,77.240 129.532,83.052 129.495 L 90.900 129.445 91.228 128.872 C 91.589 128.243,91.862 124.625,91.583 124.173 C 91.384 123.851,87.512 123.630,84.076 123.745 C 81.271 123.838,81.407 123.955,81.558 121.600 L 81.641 120.300 84.470 120.245 C 86.027 120.215,87.930 120.125,88.700 120.045 L 90.100 119.900 90.107 117.421 C 90.116 114.065,90.737 114.385,84.100 114.321 L 81.900 114.300 81.800 112.552 L 81.700 110.803 82.233 110.618 C 82.533 110.514,84.625 110.479,87.033 110.538 C 92.409 110.670,92.087 110.877,91.884 107.405 C 91.729 104.753,91.440 104.200,90.351 104.466 C 89.744 104.615,86.050 104.649,83.100 104.534 C 81.780 104.482,79.495 104.520,78.022 104.619 M131.300 104.524 C 126.231 104.876,126.622 104.717,126.395 106.522 C 126.046 109.292,126.233 128.497,126.616 129.224 C 126.770 129.516,127.566 129.543,134.643 129.492 L 142.500 129.435 142.832 128.968 C 143.065 128.639,143.203 127.865,143.295 126.364 C 143.463 123.608,143.821 123.784,137.939 123.737 L 133.300 123.700 133.300 122.000 L 133.300 120.300 134.000 120.326 C 136.163 120.407,141.513 119.963,141.726 119.685 C 142.031 119.286,141.846 114.998,141.509 114.639 C 141.325 114.444,140.277 114.367,137.381 114.339 L 133.500 114.300 133.441 112.619 C 133.363 110.359,133.048 110.490,138.370 110.560 C 144.039 110.636,143.657 110.870,143.526 107.401 C 143.475 106.055,143.341 104.861,143.229 104.749 C 142.999 104.519,142.860 104.512,139.500 104.573 C 138.180 104.597,136.020 104.580,134.700 104.536 C 133.380 104.491,131.850 104.486,131.300 104.524 M196.952 104.612 C 193.671 104.833,193.687 104.823,193.532 106.642 C 193.219 110.293,193.460 128.865,193.826 129.323 C 194.135 129.709,209.560 129.525,209.955 129.130 C 210.456 128.630,210.710 124.385,210.260 124.050 C 209.893 123.778,207.660 123.690,203.176 123.773 C 200.034 123.831,200.238 123.989,200.362 121.600 L 200.430 120.300 203.365 120.239 C 204.979 120.205,206.885 120.115,207.600 120.039 L 208.900 119.900 208.915 117.441 C 208.936 114.149,209.277 114.394,204.597 114.343 L 200.700 114.300 200.641 112.619 C 200.563 110.359,200.248 110.490,205.570 110.560 C 211.258 110.636,210.886 110.865,210.684 107.405 C 210.529 104.753,210.240 104.200,209.151 104.466 C 208.544 104.615,204.850 104.649,201.900 104.534 C 200.580 104.482,198.354 104.517,196.952 104.612 M258.300 104.609 C 257.860 104.702,257.084 104.782,256.574 104.788 C 256.065 104.795,255.552 104.917,255.433 105.060 C 255.060 105.510,254.823 110.118,254.923 114.993 C 255.051 121.229,254.683 122.541,252.705 122.912 C 251.338 123.169,249.600 122.042,249.600 120.899 C 249.600 119.818,248.352 119.366,245.850 119.543 C 243.444 119.713,243.305 119.874,243.465 122.307 C 243.737 126.455,245.934 128.686,250.222 129.172 C 258.089 130.063,261.613 127.734,261.981 121.400 C 262.238 116.970,262.096 105.208,261.781 104.912 C 261.421 104.573,259.340 104.392,258.300 104.609 M266.166 104.545 C 264.916 104.646,264.710 104.952,264.656 106.780 C 264.287 119.329,264.368 122.349,265.136 124.694 C 267.016 130.438,279.693 131.348,283.175 125.989 C 284.510 123.936,284.593 123.178,284.543 113.557 C 284.491 103.436,284.764 103.950,279.800 104.645 L 277.900 104.911 277.666 105.805 C 277.509 106.405,277.427 109.155,277.416 114.143 L 277.400 121.586 276.762 122.312 C 275.315 123.961,272.742 123.827,271.887 122.059 C 271.488 121.232,271.347 113.483,271.626 107.673 C 271.695 106.228,271.676 104.923,271.584 104.774 C 271.413 104.498,268.348 104.369,266.166 104.545 M359.422 104.619 C 356.231 104.832,356.284 104.798,356.128 106.753 C 355.812 110.728,356.051 128.853,356.426 129.323 C 356.552 129.481,358.870 129.531,364.452 129.495 L 372.300 129.445 372.627 128.872 C 372.995 128.228,373.276 124.646,372.994 124.190 C 372.784 123.850,369.017 123.627,365.476 123.745 C 362.677 123.838,362.839 123.977,362.962 121.600 L 363.030 120.300 365.965 120.239 C 367.579 120.205,369.485 120.115,370.200 120.039 L 371.500 119.900 371.507 117.429 C 371.516 114.148,371.859 114.394,367.197 114.343 L 363.300 114.300 363.200 112.552 L 363.100 110.803 363.633 110.618 C 363.933 110.514,366.025 110.479,368.433 110.538 C 373.809 110.670,373.487 110.877,373.284 107.405 C 373.129 104.753,372.840 104.200,371.751 104.466 C 371.144 104.615,367.450 104.649,364.500 104.534 C 363.180 104.482,360.895 104.520,359.422 104.619 M118.200 104.779 C 117.129 104.897,117.093 104.921,116.834 105.700 C 116.409 106.981,116.478 127.031,116.915 129.150 C 117.026 129.690,122.852 129.763,123.183 129.228 C 123.533 128.661,123.776 106.455,123.444 105.300 L 123.272 104.700 121.286 104.679 C 120.194 104.668,118.805 104.713,118.200 104.779 M147.250 104.745 C 146.849 104.794,146.505 104.993,146.350 105.263 C 146.049 105.789,146.022 125.020,146.319 127.800 L 146.500 129.500 149.500 129.427 C 153.364 129.333,153.000 129.919,153.000 123.801 C 153.000 120.968,153.057 118.364,153.127 118.015 L 153.254 117.380 153.819 118.040 C 154.130 118.403,154.387 118.767,154.392 118.848 C 154.399 118.980,155.030 119.868,156.204 121.400 C 156.415 121.675,157.263 122.845,158.089 124.000 C 158.915 125.155,159.939 126.505,160.364 127.000 C 160.790 127.495,161.265 128.110,161.419 128.367 C 162.114 129.522,165.782 130.310,167.900 129.760 L 168.900 129.500 169.033 127.500 C 169.262 124.040,168.862 105.376,168.552 105.066 C 168.119 104.633,162.764 104.461,162.426 104.869 C 162.172 105.175,162.049 107.861,161.983 114.550 C 161.958 117.110,161.832 117.432,161.277 116.350 C 161.094 115.993,160.727 115.430,160.462 115.100 C 158.918 113.179,158.600 112.738,158.600 112.512 C 158.600 112.375,158.411 112.091,158.179 111.881 C 157.947 111.671,156.822 110.078,155.679 108.340 C 153.114 104.442,152.343 104.113,147.250 104.745 M288.200 104.746 C 287.472 104.880,287.245 105.134,287.115 105.962 C 286.908 107.268,286.941 122.603,287.157 125.579 C 287.271 127.162,287.318 128.581,287.260 128.732 C 286.970 129.488,287.537 129.616,290.579 129.482 C 294.296 129.318,293.951 129.949,293.987 123.258 C 294.023 116.661,294.003 116.717,295.492 119.100 C 295.698 119.430,296.734 120.870,297.793 122.300 C 298.852 123.730,300.027 125.350,300.403 125.900 C 301.094 126.911,301.846 127.805,302.850 128.810 C 303.545 129.506,304.971 129.856,307.205 129.881 C 309.435 129.906,310.012 129.587,309.985 128.344 C 309.974 127.880,309.977 124.665,309.991 121.200 C 310.035 109.872,309.828 105.130,309.279 104.920 C 308.708 104.700,303.709 104.575,303.417 104.773 C 303.075 105.004,302.708 112.681,302.911 115.350 C 303.040 117.049,302.857 117.459,302.376 116.550 C 302.245 116.303,301.837 115.731,301.469 115.279 C 301.101 114.828,300.800 114.372,300.800 114.267 C 300.800 114.161,300.530 113.816,300.200 113.500 C 299.870 113.184,299.600 112.810,299.600 112.670 C 299.600 112.529,299.341 112.118,299.024 111.757 C 298.707 111.396,297.546 109.739,296.444 108.077 C 294.816 105.620,294.319 105.011,293.790 104.827 C 293.169 104.610,289.248 104.554,288.200 104.746 M335.499 104.802 C 334.758 106.001,334.886 128.658,335.636 129.123 C 336.737 129.803,352.859 129.617,353.259 128.919 C 353.544 128.423,353.523 124.043,353.235 123.755 C 353.132 123.652,350.679 123.528,347.783 123.480 C 343.913 123.416,342.478 123.327,342.363 123.146 C 342.196 122.883,342.131 117.435,342.236 112.500 C 342.329 108.163,342.294 105.333,342.144 104.942 C 341.991 104.543,335.740 104.412,335.499 104.802 M101.487 106.821 C 101.302 107.121,100.803 107.025,100.923 106.713 C 100.983 106.555,101.160 106.474,101.315 106.534 C 101.471 106.593,101.548 106.722,101.487 106.821 M259.487 106.821 C 259.302 107.121,258.803 107.025,258.923 106.713 C 258.983 106.555,259.160 106.474,259.315 106.534 C 259.471 106.593,259.548 106.722,259.487 106.821 M182.112 106.781 C 182.050 106.881,181.820 106.915,181.600 106.858 C 181.049 106.714,181.099 106.600,181.712 106.600 C 181.993 106.600,182.173 106.682,182.112 106.781 M179.900 107.400 C 179.968 107.510,180.191 107.600,180.395 107.600 C 180.599 107.600,180.812 107.713,180.868 107.850 C 180.923 107.988,180.978 107.920,180.990 107.700 C 181.010 107.332,181.028 107.328,181.216 107.650 C 181.353 107.886,181.667 108.000,182.178 108.000 C 182.797 108.000,182.978 108.094,183.169 108.513 C 183.422 109.067,183.259 109.047,182.549 108.438 C 182.269 108.197,182.098 108.182,181.699 108.364 C 181.377 108.511,181.200 108.519,181.200 108.388 C 181.200 108.276,180.953 108.211,180.650 108.242 C 180.247 108.285,180.118 108.220,180.167 108.000 C 180.203 107.835,180.167 107.767,180.085 107.848 C 179.921 108.012,179.400 107.653,179.400 107.376 C 179.400 107.136,179.748 107.153,179.900 107.400 M183.900 107.400 C 183.971 107.515,183.786 107.599,183.462 107.597 C 183.026 107.595,182.967 107.551,183.200 107.400 C 183.584 107.152,183.747 107.152,183.900 107.400 M282.200 107.812 C 282.200 108.148,282.122 108.375,282.027 108.317 C 281.866 108.217,281.954 107.200,282.123 107.200 C 282.165 107.200,282.200 107.475,282.200 107.812 M149.900 107.600 C 149.968 107.710,149.833 107.800,149.600 107.800 C 149.367 107.800,149.232 107.710,149.300 107.600 C 149.368 107.490,149.503 107.400,149.600 107.400 C 149.697 107.400,149.832 107.490,149.900 107.600 M290.800 107.600 C 290.800 107.710,290.598 107.799,290.350 107.797 C 289.986 107.794,289.957 107.757,290.200 107.600 C 290.588 107.349,290.800 107.349,290.800 107.600 M97.318 108.349 C 97.284 108.382,97.102 108.350,96.912 108.277 C 96.644 108.174,96.625 108.108,96.828 107.983 C 97.054 107.843,97.494 108.173,97.318 108.349 M220.000 108.100 C 220.000 108.267,219.822 108.400,219.600 108.400 C 219.202 108.400,219.080 108.187,219.333 107.933 C 219.577 107.690,220.000 107.796,220.000 108.100 M202.986 108.550 C 202.936 109.088,202.628 109.461,202.657 108.950 C 202.674 108.647,202.758 108.400,202.844 108.400 C 202.930 108.400,202.994 108.468,202.986 108.550 M257.872 108.900 C 257.951 109.104,257.862 109.200,257.594 109.200 C 257.201 109.200,257.081 108.986,257.333 108.733 C 257.549 108.517,257.749 108.579,257.872 108.900 M339.797 109.250 C 339.799 109.333,339.665 109.400,339.500 109.400 C 339.161 109.400,339.149 109.365,339.328 108.900 C 339.452 108.575,339.788 108.826,339.797 109.250 M56.450 109.239 C 56.209 109.480,55.948 109.614,55.870 109.537 C 55.793 109.459,55.903 109.265,56.115 109.104 C 56.709 108.654,56.941 108.747,56.450 109.239 M229.077 109.636 C 228.923 109.886,228.400 109.429,228.400 109.045 C 228.400 108.786,228.462 108.795,228.795 109.096 C 229.013 109.292,229.140 109.536,229.077 109.636 M63.720 109.789 C 65.183 110.435,65.841 112.574,65.001 113.952 C 64.279 115.136,62.223 115.912,60.200 115.765 L 59.300 115.700 59.244 112.709 C 59.214 111.064,59.238 109.589,59.299 109.432 C 59.450 109.038,62.593 109.292,63.720 109.789 M104.709 109.474 C 107.921 110.329,108.439 113.737,105.574 115.160 C 104.290 115.797,102.016 115.988,101.528 115.499 C 101.198 115.170,101.039 109.902,101.341 109.350 C 101.476 109.105,103.621 109.184,104.709 109.474 M178.200 109.527 C 178.200 109.950,177.249 110.841,177.084 110.574 C 177.016 110.464,177.126 110.247,177.330 110.093 C 177.533 109.939,177.621 109.810,177.526 109.806 C 177.300 109.798,177.792 109.200,178.024 109.200 C 178.121 109.200,178.200 109.347,178.200 109.527 M149.496 109.553 C 149.384 109.634,149.166 109.970,149.012 110.300 C 148.801 110.752,148.713 110.816,148.653 110.560 C 148.541 110.076,148.953 109.399,149.357 109.403 C 149.555 109.405,149.614 109.468,149.496 109.553 M153.799 109.899 C 154.361 110.497,154.306 110.584,153.450 110.454 C 153.007 110.386,152.800 110.245,152.800 110.011 C 152.800 109.270,153.169 109.229,153.799 109.899 M166.000 109.700 C 166.000 109.865,165.910 110.000,165.800 110.000 C 165.690 110.000,165.600 109.865,165.600 109.700 C 165.600 109.535,165.690 109.400,165.800 109.400 C 165.910 109.400,166.000 109.535,166.000 109.700 M290.417 109.585 C 290.262 109.683,290.022 110.020,289.884 110.332 L 289.632 110.900 289.616 110.390 C 289.598 109.817,289.926 109.398,290.390 109.403 C 290.650 109.406,290.654 109.435,290.417 109.585 M294.989 110.476 C 294.760 110.703,293.800 110.327,293.800 110.010 C 293.800 109.413,294.063 109.372,294.579 109.888 C 294.854 110.163,295.039 110.428,294.989 110.476 M151.249 110.150 C 150.812 110.296,150.982 110.600,151.500 110.600 C 151.976 110.600,152.139 110.794,151.880 111.053 C 151.657 111.277,150.800 110.738,150.800 110.374 C 150.800 110.113,150.703 110.049,150.450 110.144 C 150.145 110.258,150.135 110.232,150.371 109.942 C 150.591 109.672,150.723 109.652,151.070 109.838 C 151.339 109.982,151.406 110.098,151.249 110.150 M257.840 110.179 C 257.901 110.598,257.852 110.731,257.662 110.658 C 257.298 110.518,257.335 110.791,257.748 111.284 C 257.939 111.513,258.015 111.633,257.916 111.552 C 257.818 111.470,257.616 111.504,257.468 111.626 C 257.254 111.804,257.200 111.731,257.200 111.264 C 257.200 110.943,257.092 110.572,256.960 110.440 C 256.773 110.253,256.796 110.200,257.060 110.200 C 257.247 110.200,257.400 110.065,257.400 109.900 C 257.400 109.361,257.752 109.585,257.840 110.179 M292.112 109.894 C 292.330 110.059,292.391 110.190,292.250 110.194 C 292.113 110.197,292.000 110.300,292.000 110.423 C 292.000 110.554,292.208 110.607,292.500 110.551 C 293.031 110.450,293.098 110.536,292.824 110.968 C 292.588 111.341,291.800 110.848,291.800 110.327 C 291.800 110.016,291.749 109.994,291.500 110.200 C 291.174 110.470,291.134 110.406,291.321 109.916 C 291.472 109.524,291.618 109.520,292.112 109.894 M96.823 110.186 C 96.657 110.288,96.608 110.511,96.692 110.775 C 96.772 111.027,96.740 111.200,96.613 111.200 C 96.313 111.200,96.346 110.053,96.650 109.944 C 97.010 109.815,97.136 109.992,96.823 110.186 M281.027 110.253 C 280.917 110.363,280.666 110.391,280.469 110.316 C 280.180 110.205,280.164 110.146,280.387 110.008 C 280.758 109.779,281.295 109.985,281.027 110.253 M42.671 110.297 C 42.737 110.467,42.630 110.677,42.422 110.788 C 42.109 110.956,42.072 110.915,42.153 110.491 C 42.258 109.940,42.499 109.849,42.671 110.297 M41.163 110.903 C 41.117 110.950,40.724 110.930,40.289 110.859 L 39.500 110.731 40.089 110.490 C 40.631 110.267,41.474 110.592,41.163 110.903 M282.391 110.617 C 282.268 110.847,282.128 110.994,282.079 110.946 C 281.939 110.806,282.223 110.200,282.428 110.200 C 282.531 110.200,282.514 110.388,282.391 110.617 M31.800 111.140 C 31.800 111.542,31.742 111.622,31.573 111.453 C 31.449 111.329,31.401 111.086,31.467 110.913 C 31.650 110.436,31.800 110.538,31.800 111.140 M38.918 112.124 C 38.855 112.290,38.716 112.371,38.609 112.306 C 38.487 112.230,38.505 111.988,38.657 111.655 C 38.918 111.082,39.155 111.508,38.918 112.124 M120.700 111.400 C 120.768 111.510,120.638 111.600,120.412 111.600 C 120.185 111.600,120.000 111.510,120.000 111.400 C 120.000 111.290,120.130 111.200,120.288 111.200 C 120.447 111.200,120.632 111.290,120.700 111.400 M267.400 111.400 C 267.400 111.510,267.265 111.600,267.100 111.600 C 266.935 111.600,266.800 111.510,266.800 111.400 C 266.800 111.290,266.935 111.200,267.100 111.200 C 267.265 111.200,267.400 111.290,267.400 111.400 M34.482 111.900 C 34.153 112.402,33.800 112.563,33.800 112.211 C 33.800 112.052,34.563 111.400,34.749 111.400 C 34.782 111.400,34.662 111.625,34.482 111.900 M98.079 111.716 C 98.302 112.298,98.203 112.465,97.834 112.131 C 97.633 111.949,97.341 111.794,97.184 111.786 C 97.015 111.778,97.062 111.702,97.300 111.600 C 97.874 111.353,97.943 111.364,98.079 111.716 M36.418 111.878 C 36.139 112.215,35.400 112.435,35.400 112.181 C 35.400 112.082,35.575 112.000,35.788 112.000 C 36.002 112.000,36.232 111.910,36.300 111.800 C 36.368 111.690,36.474 111.600,36.536 111.600 C 36.598 111.600,36.545 111.725,36.418 111.878 M155.354 111.838 C 155.311 111.968,155.168 112.111,155.037 112.154 C 154.891 112.203,154.847 112.111,154.921 111.917 C 155.061 111.553,155.474 111.478,155.354 111.838 M177.000 112.212 C 177.000 112.425,176.933 112.600,176.850 112.600 C 176.768 112.600,176.700 112.384,176.700 112.119 C 176.700 111.855,176.768 111.680,176.850 111.731 C 176.933 111.782,177.000 111.998,177.000 112.212 M41.350 112.016 C 41.157 112.128,40.993 112.373,40.984 112.560 C 40.975 112.768,40.929 112.803,40.868 112.650 C 40.670 112.159,40.356 112.397,40.491 112.935 C 40.608 113.402,40.586 113.437,40.315 113.213 C 40.145 113.071,39.869 113.007,39.703 113.071 C 39.536 113.135,39.400 113.122,39.400 113.041 C 39.400 112.834,41.041 111.833,41.400 111.822 C 41.631 111.814,41.620 111.859,41.350 112.016 M120.000 112.000 C 120.000 112.110,120.158 112.201,120.350 112.203 C 120.643 112.206,120.652 112.236,120.407 112.392 C 120.221 112.509,120.019 112.499,119.857 112.364 C 119.551 112.110,119.520 111.800,119.800 111.800 C 119.910 111.800,120.000 111.890,120.000 112.000 M150.750 112.200 C 151.368 112.200,151.298 112.296,150.550 112.476 C 150.070 112.591,150.002 112.550,150.016 112.154 C 150.024 111.904,150.077 111.813,150.132 111.950 C 150.188 112.088,150.466 112.200,150.750 112.200 M217.105 112.009 C 217.293 112.312,216.785 112.865,216.542 112.622 C 216.318 112.398,216.492 111.800,216.782 111.800 C 216.889 111.800,217.034 111.894,217.105 112.009 M291.200 112.000 C 291.200 112.110,291.447 112.211,291.750 112.224 L 292.300 112.247 291.700 112.380 C 291.260 112.477,291.066 112.431,290.971 112.206 C 290.861 111.943,290.823 111.949,290.700 112.250 C 290.621 112.442,290.382 112.600,290.167 112.600 C 289.691 112.600,289.872 112.240,290.470 111.999 C 291.052 111.764,291.200 111.764,291.200 112.000 M149.800 112.193 C 149.800 112.299,149.620 112.482,149.400 112.600 C 149.085 112.768,149.000 112.752,149.000 112.524 C 149.000 112.260,149.259 112.057,149.650 112.016 C 149.733 112.007,149.800 112.087,149.800 112.193 M175.711 112.516 C 175.256 112.849,175.000 112.879,175.000 112.600 C 175.000 112.490,175.180 112.400,175.400 112.400 C 175.620 112.400,175.800 112.295,175.800 112.167 C 175.800 112.038,175.867 112.001,175.950 112.083 C 176.032 112.165,175.925 112.360,175.711 112.516 M218.600 112.300 C 218.600 112.480,218.419 112.597,218.150 112.594 C 217.711 112.587,217.710 112.580,218.088 112.294 C 218.570 111.929,218.600 111.929,218.600 112.300 M282.678 112.515 C 282.738 112.672,282.718 112.800,282.634 112.800 C 282.435 112.800,282.000 112.365,282.000 112.166 C 282.000 111.917,282.559 112.205,282.678 112.515 M293.672 112.500 C 293.551 112.817,293.200 112.916,293.200 112.633 C 293.200 112.422,293.419 112.200,293.627 112.200 C 293.715 112.200,293.736 112.335,293.672 112.500 M38.719 112.800 C 38.867 112.800,38.939 112.926,38.880 113.080 C 38.821 113.234,38.869 113.419,38.986 113.492 C 39.312 113.693,39.241 114.003,38.900 113.872 C 38.735 113.809,38.600 113.587,38.600 113.379 C 38.600 113.132,38.459 113.000,38.196 113.000 C 37.879 113.000,37.815 113.097,37.898 113.450 C 38.024 113.985,37.736 114.508,37.422 114.314 C 37.300 114.238,37.200 113.996,37.200 113.776 C 37.200 113.479,37.088 113.391,36.769 113.437 C 36.531 113.472,36.302 113.397,36.259 113.270 C 36.150 112.953,37.176 112.597,37.875 112.708 C 38.191 112.759,38.571 112.800,38.719 112.800 M258.200 112.977 C 258.200 113.074,258.015 113.202,257.789 113.261 C 257.451 113.349,257.419 113.318,257.613 113.084 C 257.877 112.766,258.200 112.707,258.200 112.977 M35.500 113.600 C 35.403 113.757,35.288 113.768,35.155 113.635 C 35.045 113.525,35.020 113.329,35.100 113.200 C 35.197 113.043,35.312 113.032,35.445 113.165 C 35.555 113.275,35.580 113.471,35.500 113.600 M97.678 113.575 C 97.963 113.891,97.972 113.968,97.729 114.061 C 97.539 114.134,97.410 114.007,97.348 113.686 C 97.237 113.102,97.246 113.099,97.678 113.575 M219.950 113.416 C 219.504 113.676,219.498 114.000,219.940 114.000 C 220.152 114.000,220.208 114.070,220.090 114.185 C 219.888 114.380,218.800 114.244,218.800 114.023 C 218.800 113.857,219.835 113.210,220.100 113.211 C 220.210 113.212,220.143 113.304,219.950 113.416 M221.579 114.900 C 221.594 115.226,221.526 115.191,221.208 114.709 C 220.901 114.244,220.869 114.058,221.056 113.833 C 221.308 113.529,221.537 113.995,221.579 114.900 M338.315 114.168 C 337.888 114.251,337.715 114.100,337.898 113.804 C 337.997 113.644,338.124 113.654,338.349 113.840 C 338.631 114.074,338.628 114.107,338.315 114.168 M35.168 114.509 C 35.505 115.250,35.454 115.322,35.000 114.745 C 34.567 114.194,34.506 114.000,34.768 114.000 C 34.860 114.000,35.040 114.229,35.168 114.509 M153.800 115.123 C 153.800 115.467,153.604 115.466,153.150 115.122 C 152.544 114.662,152.681 114.113,153.300 114.518 C 153.575 114.699,153.800 114.971,153.800 115.123 M294.647 114.900 C 295.085 115.497,294.570 115.570,293.993 114.993 C 293.512 114.512,293.661 114.044,294.168 114.440 C 294.351 114.583,294.566 114.790,294.647 114.900 M40.350 114.538 C 40.157 114.588,39.843 114.588,39.650 114.538 C 39.458 114.488,39.615 114.446,40.000 114.446 C 40.385 114.446,40.543 114.488,40.350 114.538 M119.400 114.784 C 119.400 115.135,119.156 115.600,118.972 115.600 C 118.863 115.600,118.868 115.446,118.986 115.226 C 119.096 115.021,119.129 114.796,119.060 114.726 C 118.990 114.657,119.038 114.600,119.167 114.600 C 119.295 114.600,119.400 114.683,119.400 114.784 M151.200 115.094 C 151.200 115.450,151.117 115.555,150.900 115.472 C 150.589 115.353,150.501 114.965,150.733 114.733 C 151.004 114.462,151.200 114.614,151.200 115.094 M164.131 115.091 C 164.066 115.261,163.917 115.400,163.799 115.400 C 163.651 115.400,163.654 115.272,163.809 114.983 C 164.057 114.519,164.317 114.607,164.131 115.091 M292.200 115.193 C 292.200 115.464,292.093 115.535,291.800 115.458 C 291.344 115.339,291.300 115.180,291.632 114.848 C 291.928 114.552,292.200 114.717,292.200 115.193 M304.811 115.256 C 304.555 115.500,304.416 115.565,304.504 115.400 C 304.782 114.873,305.054 114.587,305.167 114.701 C 305.228 114.761,305.068 115.011,304.811 115.256 M37.718 114.971 C 37.660 115.065,37.846 115.248,38.132 115.378 C 38.770 115.669,38.637 115.867,37.924 115.688 C 37.424 115.563,37.247 115.220,37.533 114.933 C 37.723 114.744,37.843 114.768,37.718 114.971 M220.734 115.116 C 220.801 115.291,220.700 115.579,220.505 115.766 C 220.175 116.081,220.170 116.076,220.420 115.659 C 220.752 115.106,220.529 114.843,220.095 115.276 C 219.675 115.696,219.600 115.684,219.600 115.200 C 219.600 114.704,220.548 114.633,220.734 115.116 M257.600 115.200 C 257.600 115.310,257.465 115.400,257.300 115.400 C 257.135 115.400,257.000 115.310,257.000 115.200 C 257.000 115.090,257.135 115.000,257.300 115.000 C 257.465 115.000,257.600 115.090,257.600 115.200 M82.206 116.400 C 82.423 116.400,82.600 116.535,82.600 116.700 C 82.600 117.114,82.391 117.068,81.763 116.515 C 81.360 116.159,81.257 115.925,81.350 115.571 C 81.466 115.128,81.484 115.139,81.643 115.750 C 81.761 116.206,81.929 116.400,82.206 116.400 M133.890 116.400 C 134.061 116.400,134.200 116.541,134.200 116.714 C 134.200 116.971,134.083 116.946,133.550 116.578 C 133.192 116.332,132.881 116.119,132.858 116.106 C 132.835 116.093,132.870 115.874,132.937 115.620 C 133.054 115.173,133.067 115.178,133.319 115.778 C 133.463 116.120,133.720 116.400,133.890 116.400 M200.957 116.297 C 201.367 116.480,201.590 117.008,201.250 116.994 C 200.776 116.974,200.034 116.012,200.152 115.571 L 200.277 115.100 200.395 115.600 C 200.460 115.875,200.713 116.189,200.957 116.297 M363.606 116.400 C 363.823 116.400,364.000 116.535,364.000 116.700 C 364.000 117.114,363.791 117.068,363.163 116.515 C 362.760 116.159,362.657 115.925,362.750 115.571 C 362.866 115.128,362.884 115.139,363.043 115.750 C 363.161 116.206,363.329 116.400,363.606 116.400 M37.289 116.418 C 37.046 116.812,36.874 116.567,36.964 115.956 C 37.053 115.346,37.068 115.336,37.230 115.774 C 37.324 116.029,37.350 116.319,37.289 116.418 M155.697 116.240 C 155.422 116.567,155.250 116.939,155.313 117.067 C 155.377 117.195,155.295 117.135,155.131 116.934 C 154.665 116.362,155.055 115.428,155.708 115.553 L 156.197 115.646 155.697 116.240 M157.400 115.600 C 157.400 115.710,157.265 115.800,157.100 115.800 C 156.935 115.800,156.800 115.710,156.800 115.600 C 156.800 115.490,156.935 115.400,157.100 115.400 C 157.265 115.400,157.400 115.490,157.400 115.600 M280.900 115.600 C 280.968 115.710,280.838 115.800,280.612 115.800 C 280.385 115.800,280.200 115.710,280.200 115.600 C 280.200 115.490,280.330 115.400,280.488 115.400 C 280.647 115.400,280.832 115.490,280.900 115.600 M297.000 115.792 C 297.000 115.872,296.817 116.104,296.593 116.306 C 296.369 116.509,296.236 116.806,296.298 116.966 C 296.389 117.205,296.355 117.212,296.105 117.004 C 295.518 116.517,295.908 115.361,296.597 115.541 C 296.819 115.599,297.000 115.712,297.000 115.792 M298.400 115.600 C 298.400 115.710,298.265 115.800,298.100 115.800 C 297.935 115.800,297.800 115.710,297.800 115.600 C 297.800 115.490,297.935 115.400,298.100 115.400 C 298.265 115.400,298.400 115.490,298.400 115.600 M57.000 115.879 C 57.000 116.032,56.863 116.210,56.695 116.274 C 56.447 116.369,56.430 116.318,56.602 115.995 C 56.851 115.532,57.000 115.488,57.000 115.879 M77.763 116.150 C 77.685 116.555,76.856 116.736,76.537 116.417 C 76.381 116.261,76.503 116.200,76.972 116.200 C 77.355 116.200,77.573 116.118,77.500 116.000 C 77.432 115.890,77.478 115.800,77.603 115.800 C 77.727 115.800,77.799 115.958,77.763 116.150 M129.600 115.960 C 129.600 116.270,129.115 116.600,128.660 116.600 C 128.407 116.600,128.200 116.510,128.200 116.400 C 128.200 116.290,128.425 116.200,128.700 116.200 C 128.975 116.200,129.200 116.110,129.200 116.000 C 129.200 115.890,129.290 115.800,129.400 115.800 C 129.510 115.800,129.600 115.872,129.600 115.960 M164.800 115.979 C 164.800 116.077,164.665 116.209,164.500 116.272 C 164.195 116.389,164.090 116.176,164.333 115.933 C 164.524 115.742,164.800 115.769,164.800 115.979 M177.040 116.440 C 176.853 116.627,176.800 116.573,176.800 116.200 C 176.800 115.827,176.853 115.773,177.040 115.960 C 177.227 116.147,177.227 116.253,177.040 116.440 M196.563 116.150 C 196.491 116.531,195.400 116.778,195.400 116.413 C 195.400 116.296,195.630 116.200,195.912 116.200 C 196.202 116.200,196.370 116.113,196.300 116.000 C 196.232 115.890,196.278 115.800,196.403 115.800 C 196.527 115.800,196.599 115.958,196.563 116.150 M359.163 116.150 C 359.091 116.531,358.000 116.778,358.000 116.413 C 358.000 116.296,358.230 116.200,358.512 116.200 C 358.802 116.200,358.970 116.113,358.900 116.000 C 358.832 115.890,358.878 115.800,359.003 115.800 C 359.127 115.800,359.199 115.958,359.163 116.150 M151.000 116.400 C 150.790 116.793,150.200 116.963,150.200 116.631 C 150.200 116.498,150.832 116.091,151.157 116.014 C 151.188 116.006,151.118 116.180,151.000 116.400 M99.072 116.500 C 99.009 116.665,98.725 116.800,98.440 116.800 C 97.943 116.800,97.938 116.789,98.312 116.506 C 98.819 116.123,99.218 116.120,99.072 116.500 M158.613 116.407 C 158.980 116.603,159.135 117.199,158.885 117.449 C 158.721 117.612,157.603 116.945,157.601 116.683 C 157.598 116.190,158.002 116.080,158.613 116.407 M292.000 116.406 C 292.000 116.691,291.472 116.868,291.173 116.683 C 290.996 116.574,291.036 116.488,291.313 116.380 C 291.860 116.165,292.000 116.171,292.000 116.406 M299.686 116.514 C 300.042 116.871,300.040 116.862,299.885 117.266 C 299.753 117.612,298.604 117.091,298.601 116.683 C 298.598 116.137,299.212 116.041,299.686 116.514 M149.400 116.576 C 149.400 116.672,149.265 116.863,149.100 117.000 C 148.786 117.260,148.634 116.833,148.933 116.533 C 149.123 116.343,149.400 116.368,149.400 116.576 M290.022 117.057 C 289.859 117.221,289.800 117.198,289.800 116.973 C 289.800 116.576,290.069 116.307,290.168 116.605 C 290.211 116.731,290.145 116.935,290.022 117.057 M259.600 116.777 C 259.600 116.950,258.940 117.192,258.450 117.197 C 258.313 117.199,258.200 117.065,258.200 116.900 C 258.200 116.690,258.411 116.600,258.900 116.600 C 259.285 116.600,259.600 116.680,259.600 116.777 M36.850 117.494 C 37.102 117.840,37.135 118.016,36.970 118.119 C 36.722 118.272,36.200 117.691,36.200 117.262 C 36.200 116.865,36.460 116.958,36.850 117.494 M41.034 117.446 C 40.812 117.668,39.944 117.453,40.092 117.212 C 40.146 117.125,40.424 117.098,40.709 117.153 C 41.044 117.217,41.159 117.321,41.034 117.446 M79.344 117.224 C 79.468 117.348,79.520 117.575,79.461 117.730 C 79.374 117.957,79.300 117.943,79.083 117.656 C 78.630 117.060,78.838 116.718,79.344 117.224 M131.124 117.290 C 131.237 117.586,130.631 118.800,130.369 118.800 C 129.998 118.800,130.007 118.361,130.380 118.263 C 130.819 118.148,130.944 117.713,130.600 117.500 C 130.295 117.312,130.362 117.000,130.706 117.000 C 130.875 117.000,131.063 117.130,131.124 117.290 M198.144 117.224 C 198.268 117.348,198.320 117.575,198.261 117.730 C 198.174 117.957,198.100 117.943,197.883 117.656 C 197.430 117.060,197.638 116.718,198.144 117.224 M360.744 117.224 C 360.868 117.348,360.920 117.575,360.861 117.730 C 360.774 117.957,360.700 117.943,360.483 117.656 C 360.030 117.060,360.238 116.718,360.744 117.224 M281.404 117.505 C 281.543 117.672,281.599 117.868,281.528 117.938 C 281.348 118.118,280.390 117.578,280.519 117.370 C 280.684 117.103,281.127 117.171,281.404 117.505 M103.700 117.600 C 103.632 117.710,103.379 117.799,103.138 117.797 C 102.782 117.794,102.756 117.758,103.000 117.600 C 103.394 117.345,103.857 117.345,103.700 117.600 M223.845 117.971 C 224.109 118.285,224.454 118.593,224.613 118.655 C 224.809 118.733,224.774 118.772,224.500 118.781 C 224.280 118.788,223.965 118.707,223.800 118.600 C 223.635 118.493,223.583 118.405,223.685 118.403 C 223.787 118.401,223.658 118.175,223.400 117.900 C 223.142 117.625,223.028 117.400,223.147 117.400 C 223.267 117.400,223.581 117.657,223.845 117.971 M39.437 118.043 C 39.046 118.434,39.154 119.158,39.625 119.308 C 39.878 119.388,40.111 119.345,40.200 119.200 C 40.282 119.067,40.395 119.034,40.450 119.129 C 40.505 119.223,40.248 119.578,39.879 119.918 C 39.228 120.517,39.212 120.521,39.330 120.050 C 39.444 119.597,39.405 119.569,38.737 119.626 C 38.343 119.660,37.957 119.623,37.877 119.544 C 37.798 119.465,38.018 119.400,38.367 119.400 C 38.950 119.400,39.000 119.348,39.000 118.740 C 39.000 118.120,39.352 117.485,39.573 117.707 C 39.628 117.762,39.567 117.913,39.437 118.043 M119.800 118.000 C 119.800 118.220,119.673 118.400,119.519 118.400 C 119.336 118.400,119.274 118.260,119.342 118.000 C 119.400 117.780,119.526 117.600,119.623 117.600 C 119.720 117.600,119.800 117.780,119.800 118.000 M37.986 118.462 C 37.972 118.884,37.966 118.886,37.800 118.500 C 37.563 117.950,37.563 117.754,37.800 117.900 C 37.910 117.968,37.994 118.221,37.986 118.462 M163.800 118.000 C 163.800 118.251,163.588 118.251,163.200 118.000 C 162.957 117.843,162.986 117.806,163.350 117.803 C 163.597 117.801,163.800 117.890,163.800 118.000 M280.415 118.400 C 280.517 118.400,280.600 118.555,280.600 118.744 C 280.600 119.045,280.546 119.035,280.176 118.665 C 279.898 118.387,279.810 118.147,279.921 117.970 C 280.055 117.757,280.105 117.774,280.160 118.050 C 280.198 118.243,280.313 118.400,280.415 118.400 M304.712 117.981 C 304.650 118.081,304.420 118.115,304.200 118.058 C 303.649 117.914,303.699 117.800,304.312 117.800 C 304.593 117.800,304.773 117.882,304.712 117.981 M102.400 118.412 C 102.400 118.515,102.214 118.600,101.987 118.600 C 101.760 118.600,101.400 118.693,101.187 118.807 C 100.877 118.973,100.800 118.948,100.800 118.686 C 100.800 118.476,100.908 118.399,101.100 118.472 C 101.265 118.536,101.400 118.507,101.400 118.408 C 101.400 118.212,102.010 118.025,102.250 118.147 C 102.333 118.189,102.400 118.308,102.400 118.412 M109.811 118.300 C 109.795 118.597,109.347 118.542,109.244 118.231 C 109.188 118.063,109.279 117.988,109.488 118.031 C 109.671 118.069,109.816 118.190,109.811 118.300 M259.900 118.200 C 259.832 118.310,259.596 118.400,259.376 118.400 C 259.156 118.400,259.032 118.310,259.100 118.200 C 259.168 118.090,259.404 118.000,259.624 118.000 C 259.844 118.000,259.968 118.090,259.900 118.200 M79.068 118.511 C 79.002 118.683,78.818 118.773,78.658 118.711 C 78.498 118.650,78.324 118.600,78.272 118.600 C 78.219 118.600,78.232 118.510,78.300 118.400 C 78.511 118.058,79.203 118.158,79.068 118.511 M197.868 118.511 C 197.802 118.683,197.618 118.773,197.458 118.711 C 197.298 118.650,197.124 118.600,197.072 118.600 C 197.019 118.600,197.032 118.510,197.100 118.400 C 197.311 118.058,198.003 118.158,197.868 118.511 M258.591 119.289 C 258.705 119.427,258.599 119.500,258.283 119.500 C 257.784 119.500,257.670 119.170,257.934 118.484 C 258.050 118.181,258.090 118.197,258.242 118.607 C 258.338 118.866,258.495 119.173,258.591 119.289 M360.468 118.511 C 360.402 118.683,360.218 118.773,360.058 118.711 C 359.898 118.650,359.724 118.600,359.672 118.600 C 359.619 118.600,359.632 118.510,359.700 118.400 C 359.911 118.058,360.603 118.158,360.468 118.511 M103.746 118.788 C 103.730 119.001,103.555 119.217,103.358 119.269 C 102.934 119.380,102.920 119.322,103.248 118.797 C 103.563 118.293,103.784 118.288,103.746 118.788 M228.167 118.825 C 228.020 118.918,227.720 118.985,227.500 118.974 C 227.161 118.957,227.153 118.940,227.452 118.862 C 227.646 118.811,227.759 118.695,227.702 118.604 C 227.646 118.512,227.787 118.486,228.017 118.546 C 228.334 118.629,228.370 118.696,228.167 118.825 M105.600 118.900 C 105.600 119.065,105.549 119.200,105.486 119.200 C 105.423 119.200,105.236 119.065,105.071 118.900 C 104.805 118.633,104.817 118.600,105.186 118.600 C 105.421 118.600,105.600 118.730,105.600 118.900 M226.380 119.221 C 226.061 119.563,225.800 119.928,225.800 120.033 C 225.800 120.138,225.714 120.170,225.609 120.105 C 225.209 119.858,226.041 118.646,226.630 118.617 C 226.878 118.604,226.816 118.755,226.380 119.221 M317.012 120.200 C 317.493 120.200,317.506 120.375,317.050 120.722 C 316.553 121.099,316.354 121.061,316.495 120.616 C 316.574 120.365,316.468 120.093,316.191 119.835 C 315.818 119.487,315.797 119.380,316.022 118.969 C 316.271 118.513,316.283 118.524,316.451 119.350 C 316.583 119.999,316.715 120.200,317.012 120.200 M162.994 118.992 C 163.448 119.279,163.101 119.454,162.388 119.297 C 161.918 119.194,161.820 119.110,162.023 118.981 C 162.377 118.757,162.627 118.760,162.994 118.992 M304.000 119.100 C 304.207 119.350,304.181 119.400,303.841 119.400 C 303.253 119.400,302.784 119.187,302.913 118.979 C 303.087 118.698,303.726 118.769,304.000 119.100 M160.800 119.288 C 160.800 119.447,160.710 119.632,160.600 119.700 C 160.490 119.768,160.400 119.781,160.400 119.728 C 160.400 119.676,160.345 119.490,160.279 119.316 C 160.199 119.109,160.268 119.000,160.479 119.000 C 160.655 119.000,160.800 119.130,160.800 119.288 M301.800 119.084 C 301.800 119.389,301.528 119.779,301.379 119.687 C 301.086 119.506,301.176 119.000,301.500 119.000 C 301.665 119.000,301.800 119.038,301.800 119.084 M159.880 119.833 C 159.821 119.928,159.679 119.949,159.564 119.878 C 159.449 119.807,159.277 119.873,159.181 120.024 C 159.056 120.221,159.005 120.143,159.003 119.754 C 159.000 119.246,159.034 119.224,159.494 119.434 C 159.765 119.557,159.939 119.737,159.880 119.833 M300.800 119.829 C 300.800 119.903,300.620 119.915,300.400 119.858 C 300.110 119.782,300.000 119.852,300.000 120.110 C 300.000 120.306,299.944 120.411,299.876 120.343 C 299.534 120.001,300.006 119.200,300.404 119.449 C 300.622 119.585,300.800 119.756,300.800 119.829 M164.493 119.737 C 165.316 120.129,165.453 120.486,164.666 120.187 C 164.372 120.075,164.012 120.030,163.866 120.086 C 163.700 120.149,163.600 120.039,163.600 119.794 C 163.600 119.316,163.610 119.316,164.493 119.737 M305.550 119.798 C 305.907 120.016,306.200 120.288,306.200 120.402 C 306.200 120.516,305.976 120.462,305.702 120.283 C 305.427 120.103,305.070 120.007,304.908 120.069 C 304.573 120.198,304.314 119.901,304.500 119.600 C 304.673 119.320,304.809 119.346,305.550 119.798 M104.600 120.000 C 104.600 120.110,104.510 120.200,104.400 120.200 C 104.290 120.200,104.200 120.425,104.200 120.700 C 104.200 120.975,104.108 121.200,103.996 121.200 C 103.813 121.200,103.909 120.360,104.139 119.950 C 104.263 119.730,104.600 119.767,104.600 120.000 M161.105 120.383 C 161.038 120.594,161.077 120.824,161.192 120.895 C 161.446 121.052,161.471 122.000,161.221 122.000 C 161.049 122.000,159.800 120.680,159.800 120.499 C 159.800 120.427,160.113 120.316,161.163 120.018 C 161.198 120.008,161.172 120.172,161.105 120.383 M302.099 120.201 C 302.031 120.312,302.088 120.715,302.226 121.096 C 302.579 122.074,302.310 122.185,301.497 121.397 C 300.638 120.565,300.634 120.459,301.450 120.224 C 301.808 120.121,302.128 120.028,302.162 120.018 C 302.196 120.008,302.168 120.091,302.099 120.201 M36.912 120.913 C 36.444 121.258,35.876 121.285,35.682 120.971 C 35.583 120.810,35.695 120.780,36.057 120.871 C 36.469 120.975,36.600 120.916,36.706 120.580 C 36.808 120.261,36.895 120.216,37.070 120.393 C 37.244 120.570,37.205 120.697,36.912 120.913 M258.416 121.900 C 258.346 122.525,257.577 124.026,257.363 123.954 C 257.257 123.919,257.177 123.825,257.185 123.745 C 257.193 123.665,257.200 123.479,257.200 123.332 C 257.200 123.185,257.425 122.962,257.700 122.836 C 258.191 122.613,258.464 121.400,258.023 121.400 C 257.799 121.400,257.581 120.593,257.737 120.340 C 257.897 120.081,258.472 121.401,258.416 121.900 M38.153 121.123 C 38.022 121.410,37.881 121.542,37.839 121.416 C 37.732 121.097,37.946 120.600,38.189 120.600 C 38.316 120.600,38.303 120.795,38.153 121.123 M131.400 121.100 C 131.201 121.340,131.204 121.470,131.415 121.750 C 131.662 122.079,131.656 122.080,131.312 121.766 C 130.934 121.420,131.002 120.800,131.418 120.800 C 131.584 120.800,131.579 120.884,131.400 121.100 M35.000 121.500 C 35.000 121.665,34.910 121.800,34.800 121.800 C 34.690 121.800,34.600 121.665,34.600 121.500 C 34.600 121.335,34.690 121.200,34.800 121.200 C 34.910 121.200,35.000 121.335,35.000 121.500 M41.912 121.690 C 42.286 121.970,42.284 121.976,41.847 121.866 C 41.598 121.803,41.345 121.673,41.285 121.576 C 41.116 121.302,41.482 121.369,41.912 121.690 M77.683 121.898 C 77.384 122.355,77.383 122.406,77.678 122.519 C 78.155 122.702,78.068 123.000,77.538 123.000 C 77.255 123.000,76.901 122.765,76.627 122.393 L 76.178 121.787 76.654 121.906 C 76.961 121.983,77.222 121.915,77.389 121.713 C 77.808 121.208,78.039 121.354,77.683 121.898 M129.514 121.714 C 129.123 122.106,129.097 122.682,129.477 122.536 C 129.666 122.464,129.725 122.543,129.662 122.784 C 129.546 123.227,128.627 123.106,128.446 122.624 C 128.379 122.446,128.184 122.183,128.012 122.040 C 127.741 121.814,127.759 121.796,128.148 121.902 C 128.413 121.975,128.778 121.898,129.042 121.713 C 129.620 121.308,129.919 121.309,129.514 121.714 M196.640 121.640 C 196.349 121.931,196.321 122.600,196.600 122.600 C 196.710 122.600,196.800 122.690,196.800 122.800 C 196.800 123.254,195.857 122.975,195.427 122.393 L 194.978 121.787 195.454 121.906 C 195.761 121.983,196.022 121.915,196.189 121.713 C 196.332 121.541,196.546 121.400,196.664 121.400 C 196.805 121.400,196.796 121.484,196.640 121.640 M359.240 121.640 C 358.949 121.931,358.921 122.600,359.200 122.600 C 359.310 122.600,359.400 122.690,359.400 122.800 C 359.400 123.254,358.457 122.975,358.027 122.393 L 357.578 121.787 358.054 121.906 C 358.361 121.983,358.622 121.915,358.789 121.713 C 358.932 121.541,359.146 121.400,359.264 121.400 C 359.405 121.400,359.396 121.484,359.240 121.640 M166.200 122.521 C 166.200 122.694,165.470 122.225,165.184 121.869 C 164.982 121.618,165.089 121.648,165.550 121.971 C 165.908 122.222,166.200 122.469,166.200 122.521 M227.743 121.850 C 227.793 121.713,227.984 121.600,228.169 121.600 C 228.580 121.600,229.081 122.326,228.793 122.505 C 228.462 122.709,228.806 123.025,229.217 122.895 C 229.431 122.827,229.600 122.867,229.600 122.987 C 229.600 123.104,229.746 123.200,229.924 123.200 C 230.190 123.200,230.204 123.254,230.000 123.500 C 229.863 123.665,229.672 123.800,229.576 123.800 C 229.479 123.800,229.400 123.665,229.400 123.500 C 229.400 123.335,229.317 123.200,229.216 123.200 C 229.115 123.200,228.876 123.140,228.684 123.066 C 228.445 122.975,228.380 123.006,228.479 123.166 C 228.571 123.315,228.478 123.400,228.224 123.400 C 227.589 123.400,227.551 123.068,228.132 122.610 C 228.508 122.315,228.605 122.125,228.458 121.978 C 228.204 121.724,227.400 122.158,227.400 122.548 C 227.400 122.830,227.204 122.868,226.893 122.647 C 226.710 122.517,226.672 122.236,226.770 121.748 C 226.786 121.665,226.992 121.710,227.226 121.848 C 227.567 122.049,227.670 122.050,227.743 121.850 M175.200 122.100 C 175.404 122.346,175.390 122.400,175.124 122.400 C 174.946 122.400,174.800 122.265,174.800 122.100 C 174.800 121.935,174.834 121.800,174.876 121.800 C 174.917 121.800,175.063 121.935,175.200 122.100 M307.101 122.401 C 307.332 122.775,306.863 122.601,306.481 122.171 C 306.103 121.745,306.103 121.743,306.539 121.972 C 306.780 122.099,307.033 122.292,307.101 122.401 M318.600 122.400 C 318.600 122.510,318.425 122.600,318.212 122.600 C 317.998 122.600,317.768 122.510,317.700 122.400 C 317.630 122.287,317.798 122.200,318.088 122.200 C 318.370 122.200,318.600 122.290,318.600 122.400 M41.786 122.750 C 41.933 122.999,42.038 123.032,42.148 122.867 C 42.265 122.691,42.420 122.697,42.781 122.890 L 43.259 123.146 42.636 123.237 C 41.953 123.338,40.800 122.943,40.800 122.610 C 40.800 122.264,41.564 122.373,41.786 122.750 M247.500 122.600 C 247.568 122.710,247.438 122.800,247.212 122.800 C 246.985 122.800,246.800 122.710,246.800 122.600 C 246.800 122.490,246.930 122.400,247.088 122.400 C 247.247 122.400,247.432 122.490,247.500 122.600 M280.168 122.648 C 280.366 122.846,280.455 122.836,280.605 122.598 C 280.765 122.345,280.794 122.353,280.797 122.650 C 280.799 122.843,280.807 123.065,280.815 123.145 C 280.848 123.464,280.469 123.359,279.900 122.893 C 279.509 122.573,279.408 122.402,279.610 122.401 C 279.781 122.400,280.032 122.512,280.168 122.648 M255.807 123.108 C 255.979 123.316,255.997 123.483,255.861 123.619 C 255.726 123.754,255.550 123.653,255.325 123.310 C 254.940 122.722,255.345 122.552,255.807 123.108 M303.260 123.265 C 303.651 123.183,303.661 123.197,303.348 123.397 C 302.963 123.643,302.591 123.512,302.616 123.138 C 302.627 122.966,302.658 122.964,302.725 123.129 C 302.777 123.255,303.017 123.316,303.260 123.265 M97.200 123.571 C 97.200 123.642,96.975 123.700,96.700 123.700 C 96.173 123.700,96.027 123.494,96.450 123.346 C 96.740 123.245,97.200 123.383,97.200 123.571 M162.500 123.400 C 162.432 123.510,162.241 123.600,162.076 123.600 C 161.911 123.600,161.832 123.510,161.900 123.400 C 161.968 123.290,162.159 123.200,162.324 123.200 C 162.489 123.200,162.568 123.290,162.500 123.400 M224.911 123.382 C 224.751 123.640,225.006 124.220,225.221 124.087 C 225.319 124.026,225.400 124.072,225.400 124.188 C 225.400 124.305,225.490 124.400,225.600 124.400 C 225.710 124.400,225.800 124.255,225.800 124.077 C 225.800 123.780,225.839 123.780,226.293 124.077 C 226.564 124.255,226.969 124.400,227.193 124.400 C 227.652 124.400,227.701 124.700,227.343 125.323 C 227.169 125.627,226.990 125.708,226.713 125.608 C 226.448 125.513,226.401 125.423,226.563 125.323 C 227.147 124.962,226.819 124.580,226.200 124.900 C 225.669 125.174,225.600 125.175,225.600 124.909 C 225.600 124.743,225.375 124.551,225.100 124.482 C 224.587 124.353,224.328 123.200,224.812 123.200 C 224.928 123.200,224.973 123.282,224.911 123.382 M56.901 124.001 C 57.112 124.344,56.803 124.219,56.342 123.775 L 55.900 123.351 56.339 123.576 C 56.580 123.701,56.833 123.892,56.901 124.001 M42.000 123.800 C 42.000 124.035,41.846 124.035,41.300 123.800 C 40.946 123.648,40.963 123.627,41.450 123.614 C 41.752 123.606,42.000 123.690,42.000 123.800 M182.800 123.900 C 182.939 124.067,182.961 124.200,182.849 124.200 C 182.739 124.200,182.537 124.065,182.400 123.900 C 182.261 123.733,182.239 123.600,182.351 123.600 C 182.461 123.600,182.663 123.735,182.800 123.900 M338.658 124.000 C 338.547 124.426,338.299 124.521,338.108 124.212 C 338.020 124.071,338.441 123.663,338.731 123.606 C 338.748 123.603,338.715 123.780,338.658 124.000 M228.561 124.306 C 228.394 124.673,228.286 124.741,228.168 124.556 C 227.925 124.172,227.964 124.039,228.350 123.938 C 228.543 123.888,228.721 123.836,228.746 123.823 C 228.771 123.810,228.688 124.028,228.561 124.306 M97.700 124.400 C 97.632 124.510,97.379 124.594,97.138 124.586 C 96.716 124.572,96.714 124.566,97.100 124.400 C 97.650 124.163,97.846 124.163,97.700 124.400 M119.073 124.499 C 119.010 124.663,118.878 124.748,118.779 124.687 C 118.497 124.513,118.570 124.200,118.894 124.200 C 119.072 124.200,119.142 124.317,119.073 124.499 M270.000 124.660 C 270.000 124.824,269.741 124.920,269.300 124.920 C 268.621 124.920,268.458 124.809,268.733 124.533 C 268.978 124.289,270.000 124.391,270.000 124.660 M325.785 124.918 C 325.656 125.073,325.360 125.194,325.126 125.187 C 324.708 125.175,324.708 125.171,325.150 124.994 C 325.398 124.894,325.600 124.715,325.600 124.595 C 325.600 124.475,325.694 124.435,325.810 124.506 C 325.953 124.595,325.945 124.725,325.785 124.918 M328.600 124.577 C 328.600 124.674,328.415 124.802,328.189 124.861 C 327.851 124.949,327.819 124.918,328.013 124.684 C 328.277 124.366,328.600 124.307,328.600 124.577 M223.679 125.112 C 223.576 125.524,223.634 125.646,223.975 125.736 C 224.275 125.814,224.400 126.004,224.400 126.383 C 224.400 126.678,224.492 127.012,224.605 127.125 C 224.904 127.424,222.907 127.138,222.534 126.828 C 222.332 126.661,222.194 126.648,222.106 126.790 C 222.035 126.906,221.779 126.994,221.538 126.986 L 221.100 126.973 221.550 126.756 C 222.063 126.509,222.146 126.200,221.700 126.200 C 221.298 126.200,221.317 125.874,221.729 125.717 C 221.909 125.647,222.067 125.615,222.079 125.645 C 222.452 126.601,223.005 126.749,223.218 125.950 C 223.328 125.539,223.281 125.351,223.033 125.206 C 222.727 125.028,222.728 125.012,223.050 125.006 C 223.243 125.003,223.400 124.910,223.400 124.800 C 223.400 124.690,223.492 124.600,223.604 124.600 C 223.723 124.600,223.754 124.814,223.679 125.112 M217.600 125.000 C 217.212 125.251,217.000 125.251,217.000 125.000 C 217.000 124.890,217.203 124.801,217.450 124.803 C 217.814 124.806,217.843 124.843,217.600 125.000 M254.200 125.100 C 254.404 125.346,254.390 125.400,254.124 125.400 C 253.946 125.400,253.800 125.265,253.800 125.100 C 253.800 124.935,253.834 124.800,253.876 124.800 C 253.917 124.800,254.063 124.935,254.200 125.100 M326.094 126.799 C 326.445 126.921,326.430 126.948,325.957 127.038 C 325.665 127.094,325.308 127.065,325.163 126.973 C 324.948 126.837,324.950 126.806,325.171 126.803 C 325.340 126.801,325.395 126.676,325.317 126.472 C 325.248 126.291,325.257 125.954,325.337 125.722 C 325.463 125.358,325.498 125.394,325.592 125.981 C 325.661 126.416,325.842 126.711,326.094 126.799 M226.318 126.372 C 226.382 126.662,226.468 127.013,226.510 127.150 C 226.604 127.455,226.547 127.458,225.951 127.187 C 225.567 127.012,225.497 126.853,225.562 126.301 C 225.656 125.499,226.138 125.545,226.318 126.372 M251.896 125.794 C 251.962 125.901,251.765 126.050,251.458 126.125 C 251.151 126.200,250.834 126.360,250.753 126.481 C 250.660 126.619,250.605 126.583,250.603 126.381 C 250.598 125.905,251.666 125.421,251.896 125.794 M324.433 126.189 C 324.673 126.610,324.693 126.746,324.504 126.674 C 324.359 126.618,324.181 126.669,324.108 126.786 C 324.036 126.904,323.881 127.000,323.764 127.000 C 323.636 127.000,323.658 126.872,323.818 126.678 C 324.044 126.406,324.031 126.317,323.732 126.099 C 323.467 125.905,323.444 125.814,323.639 125.736 C 324.065 125.566,324.086 125.578,324.433 126.189 M343.423 126.257 C 343.205 126.475,342.600 126.212,342.600 125.897 C 342.600 125.692,342.703 125.686,343.090 125.869 C 343.359 125.996,343.509 126.170,343.423 126.257 M218.491 126.457 C 218.331 126.547,218.200 126.715,218.200 126.832 C 218.200 127.104,219.241 126.855,219.445 126.534 C 219.531 126.399,219.595 126.532,219.597 126.850 C 219.600 127.369,219.550 127.400,218.696 127.400 C 217.813 127.400,217.795 127.388,217.929 126.857 C 218.108 126.143,218.450 125.765,218.641 126.069 C 218.718 126.193,218.651 126.368,218.491 126.457 M255.681 126.770 C 255.504 126.999,255.257 126.526,255.357 126.150 C 255.477 125.702,255.478 125.702,255.606 126.200 C 255.677 126.475,255.710 126.732,255.681 126.770 M223.600 126.300 C 223.600 126.465,223.690 126.600,223.800 126.600 C 223.910 126.600,224.000 126.465,224.000 126.300 C 224.000 126.135,223.910 126.000,223.800 126.000 C 223.690 126.000,223.600 126.135,223.600 126.300 M98.800 126.400 C 98.800 126.510,98.615 126.600,98.388 126.600 C 98.162 126.600,98.032 126.510,98.100 126.400 C 98.168 126.290,98.353 126.200,98.512 126.200 C 98.670 126.200,98.800 126.290,98.800 126.400 M320.550 126.416 C 320.019 126.725,320.131 127.000,320.788 127.000 C 321.112 127.000,321.432 127.090,321.500 127.201 C 321.578 127.327,321.321 127.374,320.810 127.328 C 320.362 127.288,319.996 127.197,319.998 127.127 C 319.999 127.057,320.000 126.820,320.000 126.600 C 320.000 126.317,320.131 126.202,320.450 126.206 C 320.852 126.212,320.863 126.234,320.550 126.416 M273.591 126.711 C 273.073 127.335,272.612 127.455,272.871 126.898 C 272.997 126.626,273.269 126.402,273.474 126.402 C 273.791 126.400,273.809 126.448,273.591 126.711 M343.023 127.200 C 343.212 127.200,343.407 127.088,343.456 126.950 C 343.576 126.615,343.716 126.783,343.878 127.459 C 344.011 128.014,344.009 128.015,343.514 127.691 C 343.176 127.469,342.821 127.407,342.408 127.498 C 341.776 127.637,341.627 127.453,342.040 127.040 C 342.200 126.880,342.347 126.867,342.480 127.000 C 342.590 127.110,342.835 127.200,343.023 127.200 M221.000 127.800 C 221.000 128.260,220.498 128.343,220.332 127.910 C 220.257 127.716,220.316 127.657,220.510 127.732 C 220.670 127.793,220.800 127.743,220.800 127.621 C 220.800 127.500,220.845 127.400,220.900 127.400 C 220.955 127.400,221.000 127.580,221.000 127.800 M339.734 127.933 C 339.675 127.992,339.521 127.975,339.392 127.895 C 339.218 127.787,339.227 127.706,339.429 127.581 C 339.695 127.416,339.954 127.713,339.734 127.933 M224.100 128.000 C 224.032 128.110,223.841 128.200,223.676 128.200 C 223.511 128.200,223.432 128.110,223.500 128.000 C 223.568 127.890,223.759 127.800,223.924 127.800 C 224.089 127.800,224.168 127.890,224.100 128.000 M189.597 139.650 C 189.596 143.308,189.540 146.503,189.474 146.750 C 189.362 147.169,189.417 147.200,190.277 147.200 C 191.181 147.200,191.200 147.187,191.200 146.565 L 191.200 145.930 191.653 146.356 C 193.657 148.238,196.953 147.462,198.161 144.823 C 200.359 140.022,195.942 135.184,192.050 138.129 L 191.400 138.620 191.400 135.810 L 191.400 133.000 190.500 133.000 L 189.600 133.000 189.597 139.650 M153.800 134.600 L 153.800 135.400 155.800 135.400 L 157.800 135.400 157.800 141.300 L 157.800 147.200 158.800 147.200 L 159.800 147.200 159.800 141.300 L 159.800 135.400 161.800 135.400 L 163.800 135.400 163.800 134.600 L 163.800 133.800 158.800 133.800 L 153.800 133.800 153.800 134.600 M232.950 135.032 C 232.442 135.218,232.400 135.317,232.400 136.317 L 232.400 137.400 231.600 137.400 L 230.800 137.400 230.800 138.200 L 230.800 139.000 231.600 139.000 L 232.400 139.000 232.401 142.350 C 232.401 145.318,232.446 145.773,232.791 146.339 C 233.546 147.576,236.604 147.816,236.597 146.638 C 236.593 145.905,236.313 145.514,235.904 145.671 C 234.592 146.174,234.200 145.283,234.200 141.791 L 234.200 139.000 235.400 139.000 L 236.600 139.000 236.600 138.200 L 236.600 137.400 235.400 137.400 L 234.200 137.400 234.200 136.100 C 234.200 134.680,234.114 134.607,232.950 135.032 M165.900 137.321 C 164.220 137.727,163.757 138.034,163.882 138.660 C 164.047 139.487,164.069 139.496,164.996 139.125 C 166.593 138.486,167.955 138.747,168.498 139.796 C 169.020 140.806,168.914 141.000,167.836 141.000 C 164.794 141.000,162.689 142.837,163.116 145.117 C 163.514 147.238,166.255 148.075,168.287 146.696 L 169.000 146.212 169.000 146.706 C 169.000 147.155,169.079 147.200,169.860 147.200 L 170.720 147.200 170.645 143.550 C 170.559 139.451,170.289 138.443,169.093 137.760 C 168.470 137.405,166.613 137.149,165.900 137.321 M176.721 137.408 C 176.402 137.503,175.886 137.826,175.573 138.126 L 175.004 138.671 174.877 138.035 C 174.761 137.453,174.686 137.400,173.975 137.400 L 173.200 137.400 173.200 142.300 L 173.200 147.200 174.200 147.200 L 175.200 147.200 175.200 143.797 L 175.200 140.394 175.869 139.664 C 176.627 138.837,177.421 138.706,178.274 139.265 C 179.012 139.748,179.198 140.728,179.199 144.150 L 179.200 147.200 180.100 147.200 L 181.000 147.200 181.000 144.094 C 181.000 140.675,181.181 139.884,182.099 139.282 C 182.883 138.768,183.730 138.839,184.362 139.471 L 184.900 140.008 184.963 143.604 L 185.025 147.200 186.013 147.200 L 187.000 147.200 187.000 143.936 C 187.000 140.080,186.756 138.954,185.721 138.045 C 184.491 136.965,182.516 137.044,181.284 138.223 L 180.669 138.812 179.950 138.134 C 179.018 137.255,177.998 137.025,176.721 137.408 M203.364 137.469 C 198.830 138.737,198.894 146.119,203.449 147.212 C 205.937 147.809,208.497 146.468,209.172 144.216 C 210.450 139.947,207.356 136.353,203.364 137.469 M215.200 137.435 C 214.815 137.544,214.213 137.851,213.863 138.117 L 213.227 138.600 213.163 138.050 C 213.107 137.558,213.011 137.494,212.250 137.439 L 211.400 137.377 211.400 144.189 L 211.400 151.000 212.400 151.000 L 213.400 151.000 213.400 148.684 L 213.400 146.367 214.074 146.784 C 216.375 148.206,219.473 146.921,220.278 144.212 C 221.534 139.984,218.847 136.399,215.200 137.435 M224.002 137.510 C 222.645 137.889,222.525 138.005,222.696 138.780 C 222.852 139.492,222.900 139.505,223.869 139.100 C 225.432 138.447,227.400 138.990,227.400 140.075 C 227.400 140.236,227.450 140.496,227.510 140.654 C 227.597 140.882,227.311 140.964,226.116 141.054 C 223.419 141.258,221.800 142.574,221.800 144.562 C 221.800 146.961,224.786 148.189,227.022 146.709 L 227.800 146.194 227.800 146.697 C 227.800 147.157,227.874 147.200,228.665 147.200 L 229.530 147.200 229.462 144.950 C 229.315 140.034,229.268 139.496,228.940 138.869 C 228.224 137.502,226.115 136.922,224.002 137.510 M239.802 137.510 C 238.445 137.889,238.325 138.005,238.496 138.780 C 238.652 139.492,238.700 139.505,239.669 139.100 C 241.226 138.450,242.646 138.783,243.117 139.910 C 243.538 140.918,243.487 141.000,242.436 141.000 C 239.427 141.000,237.265 142.853,237.682 145.075 C 238.085 147.224,240.770 148.067,242.843 146.695 L 243.600 146.194 243.600 146.697 C 243.600 147.156,243.675 147.200,244.452 147.200 L 245.305 147.200 245.238 143.550 C 245.134 137.842,243.826 136.389,239.802 137.510 M195.117 139.121 C 197.403 140.206,197.246 144.826,194.896 145.601 C 192.940 146.247,191.400 144.806,191.400 142.329 C 191.400 139.809,193.232 138.227,195.117 139.121 M206.212 139.341 C 208.483 141.252,207.426 145.800,204.712 145.800 C 203.154 145.800,202.009 144.317,202.009 142.300 C 202.009 139.540,204.426 137.838,206.212 139.341 M217.337 139.306 C 219.599 140.788,218.746 145.458,216.162 145.741 C 214.381 145.936,213.408 144.750,213.403 142.380 C 213.397 139.569,215.378 138.022,217.337 139.306 M168.800 143.420 C 168.800 145.326,166.604 146.604,165.400 145.400 C 164.176 144.176,165.608 142.426,167.850 142.408 L 168.800 142.400 168.800 143.420 M227.600 143.210 C 227.600 145.270,225.453 146.653,224.200 145.400 C 222.952 144.152,224.353 142.443,226.650 142.413 L 227.600 142.400 227.600 143.210 M243.356 143.534 C 243.196 145.463,241.183 146.583,240.000 145.400 C 238.768 144.168,240.209 142.426,242.475 142.408 L 243.450 142.400 243.356 143.534 " stroke="none" fill="#046434" fill-rule="evenodd"></path><path id="path1" d="" stroke="none" fill="#046c34" fill-rule="evenodd"></path><path id="path2" d="" stroke="none" fill="#086434" fill-rule="evenodd"></path><path id="path3" d="" stroke="none" fill="#086434" fill-rule="evenodd"></path><path id="path4" d="" stroke="none" fill="#086434" fill-rule="evenodd"></path></g></svg>